<?xml version="1.0" encoding="UTF-8"?>
<svg width="512pt" height="512pt" version="1.1" viewBox="0 0 180.62 180.62" xml:space="preserve" xmlns="http://www.w3.org/2000/svg"><defs><filter id="filter15" x="-.097148" y="-.16902" width="1.1943" height="1.338" color-interpolation-filters="sRGB"><feGaussianBlur stdDeviation="4.1284217"/></filter></defs><g transform="matrix(4.0083 0 0 4.0083 14.989 -123.42)"><path d="m6.0002 35v.99994h-.99994v26h.99994v5.0002h23v-5.0002h1.0005v-26h-1.0005v-.99994z" stroke-width="4.155" style="paint-order:stroke fill markers"/><rect x="6" y="36" width="23" height="26" fill="#ccc" style="paint-order:stroke fill markers"/><path d="m9 39h18v13l-1 1e-6v1h-17z" fill="#777" stroke-width="8.0287" style="paint-order:stroke fill markers"/><path d="m9 39v-1h17l-.04699 14-17.953 1e-6v-13z" fill="#444" stroke-width="8.0287" style="paint-order:stroke fill markers"/><path d="m9 39h17v13h-17z" fill="#ccf" stroke-width="7.2797" style="paint-order:stroke fill markers"/><path d="m13 42v1.9999h.99994v-1.9999zm3.9998 0v3.9998h-.99994v1.0005h1.9999v-5.0002zm3.9998 0v1.9999h1.0005v-1.9999zm-6.9996 6.0002v.99994h.99994v-.99994zm.99994.99994v.99994h3.9998v-.99994zm3.9998 0h.99994v-.99994h-.99994z" stroke-width="1.9081" style="paint-order:stroke fill markers"/><path d="m18 57h8v2h-8z" stroke-width="4.6087" style="paint-order:stroke fill markers"/><path d="m18 58h8v1h-8z" fill="#777" stroke-width="3.2588" style="paint-order:stroke fill markers"/><path d="m8 57h2v2h-2z" fill="#0b0" stroke-width="2.3043" style="paint-order:stroke fill markers"/><path d="m8 58h2v1h-2z" fill="#d00" stroke-width="1.6294" style="paint-order:stroke fill markers"/><path d="m7 63h15v3h-4v-1h-3v-1h-8z" fill="#555" stroke-width="2.6587" style="paint-order:stroke fill markers"/><path d="m13 63h11v3h-4v-1h-3v-1h-4z" fill="#444" stroke-width="2.6587" style="paint-order:stroke fill markers"/><path d="m18 63h9v3h-3v-1h-3v-1h-3z" fill="#222" stroke-width="2.6587" style="paint-order:stroke fill markers"/><path d="m7 64h8v1h-8z" fill="#777" stroke-width="3.2588" style="paint-order:stroke fill markers"/><path d="m7 65h11v1h-11z" fill="#888" stroke-width="3.8213" style="paint-order:stroke fill markers"/></g><path d="m41.518 132.26q0 5.5354 1.3612 10.163 1.4519 4.628 3.902 7.9856 2.4501 3.2668 5.717 5.0817 3.2668 1.8149 6.9874 1.8149 3.4483 0 6.5336-1.7242 3.0853-1.6334 5.354-4.5372 2.3594-2.9038 3.6298-6.8966 1.3612-3.9928 1.3612-8.53 0-3.7205-.9982-6.8059-.90744-3.1761-2.6316-5.4447-1.7241-2.3594-4.1742-3.6298-2.3594-1.3612-5.2632-1.3612-1.7241 0-3.2668.54447t-2.8131 1.2704q-1.1797.72597-1.9056 1.6334-.72596.90744-.72596 1.5427 0 .36298.18158.72596.27223.36298.63523.36298.36297 0 .72594-.27224.45373-.36298.9982-.72596.54447-.45372 1.1797-.8167.63524-.36298 1.5427-.36298 3.4483 0 5.9892 4.3558 2.5408 4.265 2.5408 12.523 0 7.3503-2.0871 11.343-2.0871 3.9928-5.4447 3.9928-2.0871 0-4.0835-1.6334-1.9964-1.7242-3.6298-4.7187-1.5427-3.0853-2.5408-7.3503-.9982-4.265-.9982-9.5282 0-4.8095 1.2704-9.619 1.2704-4.9002 3.4483-9.3467 2.2686-4.5372 5.2632-8.3485 3.0853-3.8113 6.6244-6.6244 2.1779-1.7242 3.902-2.5409 1.7241-.90745 2.9038-1.3612 1.2704-.54447 1.9057-.90745.72594-.36298.72594-1.0889 0-1.0889-1.1797-1.0889-.54446 0-2.4501.72596-1.8149.63522-4.4465 1.9964-2.5408 1.3612-5.7169 3.4483-3.1761 2.0871-6.3522 4.9002-6.8059 6.0799-10.436 14.065-3.539 7.9856-3.539 16.788zm66.153-21.234q0 2.3594-.8167 4.3558-.72597 1.9056-1.7242 3.2668-.9982 1.3612-2.1779 2.1779-1.089.72596-1.7242.72596-.27223 0-1.2704-.36298-.99818-.45372-2.3594-1.1797-1.3612-.72596-2.8131-1.7242-1.4519-.99819-2.5409-2.1779-2.7224-2.7224-2.7224-6.8059 0-4.8095 2.4501-7.5318 2.4501-2.7224 5.9892-2.7224 4.265 0 6.9874 3.2668 2.7223 3.2668 2.7223 8.7115zm-.0907 10.526q6.8966-2.9946 6.8966-11.071 0-3.0853-1.1797-5.6262-1.0889-2.5408-3.1761-4.3558-1.9964-1.8149-4.9002-2.8131-2.8131-.99819-6.3522-.99819-3.6298 0-6.6244 1.1797t-5.1724 3.3576q-2.0871 2.0871-3.2668 5.0817t-1.1797 6.7151q0 4.265 1.3612 6.9874 1.4519 2.7223 4.7187 4.9002l2.3594 1.5427q1.0889.8167 1.0889.8167 0 .27224-.72596.54447l-1.8149.72596q-4.1743 1.7242-6.6244 5.0817-2.3594 3.3576-2.3594 7.9856 0 3.3576 1.1797 6.2614 1.1797 2.8131 3.3576 4.991 2.2686 2.0871 5.4447 3.2668 3.1761 1.1797 7.1689 1.1797 3.902 0 7.1688-1.3612 3.3576-1.3612 5.7169-3.7206 2.4501-2.3594 3.8113-5.6262 1.3612-3.3576 1.3612-7.2596 0-9.5282-7.5318-14.247l-2.1779-1.3612q-.90744-.54447-.90744-.90745 0-.1815.90744-.63522zm-12.069 7.2596q.36297 0 1.4519.45373 1.1797.36298 2.5409 1.1797 1.4519.72596 2.9038 1.7242 1.4519.99819 2.5408 2.0871 3.2668 3.3576 3.2668 9.0745 0 2.4501-.8167 4.5372-.72594 2.0871-2.0871 3.6298-1.3612 1.5427-3.2668 2.4501-1.8149.8167-3.902.8167-2.0871 0-3.9928-.90745-1.8149-.90745-3.1761-2.6316t-2.1779-3.9928q-.72597-2.3594-.72597-5.2632 0-3.0853.72597-5.4447.72594-2.4501 1.8149-4.1743 1.0889-1.7242 2.3594-2.6316 1.3612-.90745 2.5409-.90745zm36.842-28.312q0-1.6334.0907-3.1761.0906-1.5427.0906-2.9946 0-.8167-.18159-1.2704-.18158-.45372-.90746-.45372-.45371 0-1.9964 1.0889-1.4519.99819-4.628 2.1779-1.7241.63521-2.9946.99819-1.1797.27224-1.1797 1.2704 0 .54447.6352.8167.63523.27224 1.3612.63522.8167.27223 1.4519.8167.63521.54447.63521 1.7242v46.552q0 1.5427-.36297 2.3594-.27224.81671-1.5427 1.4519-.8167.36298-1.4519.45372-.63523.0907-1.089.27224-.45371.0907-.72594.36298-.27224.1815-.27224.8167 0 1.4519 1.7241 1.4519 1.1797 0 3.0853-.27223 1.9056-.27224 4.5372-.27224 2.0871 0 3.6298.27224 1.6334.27223 2.9038.27223 1.4519 0 1.4519-1.4519 0-.63521-.27224-.8167-.18158-.27224-.63523-.36298-.4537-.1815-1.0889-.36298-.6352-.1815-1.3612-.63522-.6352-.36297-.8167-.8167-.0907-.54447-.0907-1.2704v-13.34q0-1.1797.6352-1.1797.81671 0 1.8149 1.7242l7.6226 12.704q.27224.54447.45374.99819.27223.36298.27223.81671 0 .72595-.54447.90744-.54447.1815-1.2704.36298-.63521.0907-1.1797.36298-.54447.27224-.54447.9982 0 .90745.36297 1.1797.36299.27224 1.0889.27224.9982 0 2.9946-.27224 2.0871-.27223 5.1725-.27223 2.8131 0 4.628.27223 1.8149.27224 2.6316.27224 1.5427 0 1.5427-1.3612 0-1.1797-.99821-1.2704-.90743-.1815-1.9056-.63521-1.3612-.54447-2.3594-1.9056-.9982-1.4519-2.2686-3.4483l-10.345-16.062q-.0907-.1815-.18159-.27224-.0907-.1815-.0907-.36298 0-.54447.63521-1.0889l8.2578-7.7133q1.9964-1.9056 3.4483-2.5409 1.4519-.72596 2.3594-.9982.90743-.27223 1.2704-.36298.45371-.18149.45371-.99819t-.36297-.99819q-.27224-.27224-1.1797-.27224-.72597 0-2.0871.27224-1.2704.27223-3.3576.27223-2.9038 0-4.7187-.27223-1.7242-.36299-2.4501-.36299-.8167 0-1.0889.27224-.27223.27223-.27223.99819 0 .90745.63523 1.1797.6352.27223 1.4519.45372.8167.0907 1.4519.36298.63521.27224.63521 1.1797 0 .99819-1.0889 1.9056l-10.98 10.708q-.18159.1815-.45374.1815-.0907 0-.0907-.0907z" filter="url(#filter15)" stroke="#000" stroke-width="2.8222" style="paint-order:normal" aria-label="68k"/><path d="m36.227 126.97q0 5.5354 1.3612 10.163 1.4519 4.628 3.902 7.9856 2.4501 3.2668 5.717 5.0817 3.2668 1.8149 6.9874 1.8149 3.4483 0 6.5336-1.7242 3.0853-1.6334 5.354-4.5372 2.3594-2.9038 3.6298-6.8966 1.3612-3.9928 1.3612-8.53 0-3.7205-.9982-6.8059-.90744-3.1761-2.6316-5.4447-1.7241-2.3594-4.1742-3.6298-2.3594-1.3612-5.2632-1.3612-1.7241 0-3.2668.54447t-2.8131 1.2704q-1.1797.72597-1.9056 1.6334-.72596.90744-.72596 1.5427 0 .36298.18158.72596.27223.36298.63523.36298.36297 0 .72594-.27224.45373-.36298.9982-.72596.54447-.45372 1.1797-.8167.63524-.36298 1.5427-.36298 3.4483 0 5.9892 4.3558 2.5408 4.265 2.5408 12.523 0 7.3503-2.0871 11.343-2.0871 3.9928-5.4447 3.9928-2.0871 0-4.0835-1.6334-1.9964-1.7242-3.6298-4.7187-1.5427-3.0853-2.5408-7.3503-.9982-4.265-.9982-9.5282 0-4.8095 1.2704-9.619 1.2704-4.9002 3.4483-9.3467 2.2686-4.5372 5.2632-8.3485 3.0853-3.8113 6.6244-6.6244 2.1779-1.7242 3.902-2.5409 1.7241-.90745 2.9038-1.3612 1.2704-.54447 1.9057-.90745.72594-.36298.72594-1.0889 0-1.0889-1.1797-1.0889-.54446 0-2.4501.72596-1.8149.63522-4.4465 1.9964-2.5408 1.3612-5.7169 3.4483t-6.3522 4.9002q-6.8059 6.0799-10.436 14.065-3.539 7.9856-3.539 16.788zm66.153-21.234q0 2.3594-.8167 4.3558-.72597 1.9056-1.7242 3.2668-.9982 1.3612-2.1779 2.1779-1.089.72596-1.7242.72596-.27223 0-1.2704-.36298-.99818-.45372-2.3594-1.1797-1.3612-.72596-2.8131-1.7242-1.4519-.99819-2.5409-2.1779-2.7224-2.7224-2.7224-6.8059 0-4.8095 2.4501-7.5318 2.4501-2.7224 5.9892-2.7224 4.265 0 6.9874 3.2668 2.7223 3.2668 2.7223 8.7115zm-.0907 10.526q6.8966-2.9946 6.8966-11.071 0-3.0853-1.1797-5.6262-1.0889-2.5408-3.1761-4.3558-1.9964-1.8149-4.9002-2.8131-2.8131-.99819-6.3522-.99819-3.6298 0-6.6244 1.1797t-5.1724 3.3576q-2.0871 2.0871-3.2668 5.0817-1.1797 2.9946-1.1797 6.7151 0 4.265 1.3612 6.9874 1.4519 2.7223 4.7187 4.9002l2.3594 1.5427q1.0889.8167 1.0889.8167 0 .27224-.72596.54447l-1.8149.72596q-4.1743 1.7242-6.6244 5.0817-2.3594 3.3576-2.3594 7.9856 0 3.3576 1.1797 6.2614 1.1797 2.8131 3.3576 4.991 2.2686 2.0871 5.4447 3.2668t7.1689 1.1797q3.902 0 7.1688-1.3612 3.3576-1.3612 5.7169-3.7206 2.4501-2.3594 3.8113-5.6262 1.3612-3.3576 1.3612-7.2596 0-9.5282-7.5318-14.247l-2.1779-1.3612q-.90744-.54447-.90744-.90745 0-.1815.90744-.63522zm-12.069 7.2596q.36297 0 1.4519.45373 1.1797.36298 2.5409 1.1797 1.4519.72596 2.9038 1.7242 1.4519.99819 2.5408 2.0871 3.2668 3.3576 3.2668 9.0745 0 2.4501-.8167 4.5372-.72594 2.0871-2.0871 3.6298-1.3612 1.5427-3.2668 2.4501-1.8149.8167-3.902.8167-2.0871 0-3.9928-.90745-1.8149-.90745-3.1761-2.6316t-2.1779-3.9928q-.72597-2.3594-.72597-5.2632 0-3.0853.72597-5.4447.72594-2.4501 1.8149-4.1743 1.0889-1.7242 2.3594-2.6316 1.3612-.90745 2.5409-.90745zm36.842-28.312q0-1.6334.0907-3.1761.0906-1.5427.0906-2.9946 0-.8167-.18159-1.2704-.18158-.45372-.90746-.45372-.45371 0-1.9964 1.0889-1.4519.99819-4.628 2.1779-1.7241.63521-2.9946.99819-1.1797.27224-1.1797 1.2704 0 .54447.6352.8167.63523.27224 1.3612.63522.8167.27223 1.4519.8167.63521.54447.63521 1.7242v46.552q0 1.5427-.36297 2.3594-.27224.81671-1.5427 1.4519-.8167.36298-1.4519.45372-.63523.0907-1.089.27224-.45371.0907-.72594.36298-.27224.1815-.27224.8167 0 1.4519 1.7241 1.4519 1.1797 0 3.0853-.27223 1.9056-.27224 4.5372-.27224 2.0871 0 3.6298.27224 1.6334.27223 2.9038.27223 1.4519 0 1.4519-1.4519 0-.63521-.27224-.8167-.18158-.27224-.63523-.36298-.4537-.1815-1.0889-.36298-.6352-.1815-1.3612-.63522-.6352-.36297-.8167-.8167-.0907-.54447-.0907-1.2704v-13.34q0-1.1797.6352-1.1797.81671 0 1.8149 1.7242l7.6226 12.704q.27224.54447.45374.99819.27223.36298.27223.81671 0 .72595-.54447.90744-.54447.1815-1.2704.36298-.63521.0907-1.1797.36298-.54447.27224-.54447.9982 0 .90745.36297 1.1797.36299.27224 1.0889.27224.9982 0 2.9946-.27224 2.0871-.27223 5.1725-.27223 2.8131 0 4.628.27223 1.8149.27224 2.6316.27224 1.5427 0 1.5427-1.3612 0-1.1797-.99821-1.2704-.90743-.1815-1.9056-.63521-1.3612-.54447-2.3594-1.9056-.9982-1.4519-2.2686-3.4483l-10.345-16.062q-.0907-.1815-.18159-.27224-.0907-.1815-.0907-.36298 0-.54447.63521-1.0889l8.2578-7.7133q1.9964-1.9056 3.4483-2.5409 1.4519-.72596 2.3594-.9982.90743-.27223 1.2704-.36298.45371-.18149.45371-.99819t-.36297-.99819q-.27224-.27224-1.1797-.27224-.72597 0-2.0871.27224-1.2704.27223-3.3576.27223-2.9038 0-4.7187-.27223-1.7242-.36299-2.4501-.36299-.8167 0-1.0889.27224-.27223.27223-.27223.99819 0 .90745.63523 1.1797.6352.27223 1.4519.45372.8167.0907 1.4519.36298.63521.27224.63521 1.1797 0 .99819-1.0889 1.9056l-10.98 10.708q-.18159.1815-.45374.1815-.0907 0-.0907-.0907z" fill="#ff8d00" stroke="#f3511b" stroke-width="1.4111" style="paint-order:normal" aria-label="68k"/></svg>
